# xmcd
#
# Track frame offsets: 
#        182
#        14710
#        29170
#        43327
#        57570
#        72887
#        84240
#        96172
#        107360
#        124755
#        138325
#        149047
#        161175
#        175160
#        185930
#        211480
#        223635
#        240717
#        260807
#        273387
#
# Disc length: 3915 seconds
#
# Revision: 6
# Processed by: cddbd v1.5.2PL0 Copyright (c) Steve Scherf et al.
# Submitted via: ExactAudioCopy v0.99pb4
#
DISCID=450f4914
DTITLE=Various Artist - The Great Women Blues Singers [Disc 2]
DYEAR=1998
DGENRE=Blues
TTITLE0=Mildred Bailey - A Ghost Of A Chance
TTITLE1=Mildred Bailey - Lover Come Back To Me
TTITLE2=Billie Holiday - More Than You Know
TTITLE3=Billie Holiday - Until The Real Thing Comes Along
TTITLE4=LIL Green - Romance In The Dark
TTITLE5=Rosetta Tharpe - Trouble In Mind
TTITLE6=Helen Humes - Unlucky Woman Blues
TTITLE7=Dinah Washington - It Isn't Fair
TTITLE8=Dinah Washington - What A Difference A Day Makes - Makin' Whoo
TTITLE8=pee
TTITLE9=Ethel Waters - Who Said Blackbirds Are Blue
TTITLE10=Ethel Waters - I've Got A Right To Sing The Blues
TTITLE11=Ruth Brown - R. B. Blues
TTITLE12=Big Maybelle - Rain Down Rain
TTITLE13=Little Esther - Sit Back Down
TTITLE14=Big Mama Thornton - Little Red Rooster
TTITLE15=Big Mama Thornton - Willie Mae's Blues
TTITLE16=Etta James - Dust My Broom
TTITLE17=Etta James - I'd Rather Go Blind
TTITLE18=Nina Simone - Ain't No Use
TTITLE19=Nina Simone - My Baby Just Cares For Me
EXTD=
EXTT0=Mildred Bailey\n
EXTT1=Mildred Bailey\n
EXTT2=Billie Holiday\n
EXTT3=Billie Holiday\n
EXTT4=Lil Green\n
EXTT5=Rosetta Tharpe\n
EXTT6=Helen Humes\n
EXTT7=Dinah Washington\n
EXTT8=Dinah Washington\n
EXTT9=Ethel Waters\n
EXTT10=Ethel Waters\n
EXTT11=Ruth Brown\n
EXTT12=Big Maybelle\n
EXTT13=Little Esther\n
EXTT14=Big Mama Thornton\n
EXTT15=Big Mama Thornton\n
EXTT16=Etta James\n
EXTT17=Etta James\n
EXTT18=Nina Simone\n
EXTT19=Nina Simone\n
PLAYORDER=
